<svg width="260" height="84" viewBox="0 0 260 84" fill="none" xmlns="http://www.w3.org/2000/svg">
<g clip-path="url(#clip0_2304_9201)">
<path d="M20.7265 31.892L20.6007 31.7662C18.9337 30.1516 17.8224 27.7613 17.5499 25.2033C17.2563 22.4145 17.8015 18.1162 22.0999 13.4194C25.287 9.92825 27.0063 6.72019 27.3523 3.58551V3.271L27.4886 3.47019C29.6692 6.846 27.7716 10.3266 25.9265 13.692C24.2805 16.6904 22.5821 19.7936 23.62 22.9283V22.9597L23.6095 22.9912C20.8628 26.6605 20.716 30.6024 20.737 31.7242V31.9024L20.7265 31.892Z" fill="#463066"/>
<path d="M28.3168 36.327L28.212 36.1907C26.587 33.9682 26.2515 30.3093 27.4047 27.6883L27.4257 27.6464L28.2015 27.5625C30.466 27.3109 32.8983 25.4133 34.4079 22.7399C35.32 21.1149 35.8233 19.3641 35.8967 17.5294V17.2778L36.0329 17.498C37.3958 19.8359 37.0499 22.4149 36.5152 24.1762C35.8337 26.4093 34.6071 28.244 33.6846 29.219C33.2023 29.7222 32.6781 30.2149 32.1749 30.6972C30.5184 32.2593 28.8096 33.8633 28.3483 36.1802L28.3168 36.348V36.327Z" fill="#463066"/>
<path d="M33.4121 35.7502C38.7589 28.9881 41.8516 18.672 33.496 12.5704C36.6831 19.4688 31.6403 25.7486 28.0548 26.147C31.1581 21.7752 33.5484 18.1164 33.2548 12.3397C32.9194 5.83975 27.0589 0.566359 25.5492 -0.0102539C27.4887 3.76394 24.5323 8.63894 21.0621 12.4446C12.8742 21.3978 16.271 30.4978 20.6113 33.5906C21.7645 41.2438 28.6629 46.1607 28.6629 46.1607V46.1397C28.6839 46.1502 28.6944 46.1607 28.6944 46.1607C28.6944 46.1607 28.6839 46.0139 28.6944 45.7414C28.8097 44.5252 29.4806 40.7196 33.4226 35.7397L33.4121 35.7502ZM23.5992 22.9704C20.8524 26.6397 20.7057 30.5817 20.7266 31.7035V31.8817L20.6008 31.7559C18.9339 30.1414 17.8226 27.751 17.55 25.193C17.2565 22.4043 17.8016 18.1059 22.1 13.4091C25.2871 9.91797 27.0065 6.70991 27.3524 3.57523V3.26071L27.4887 3.45991C29.6694 6.83571 27.7718 10.3164 25.9266 13.6817C24.2806 16.6801 22.5823 19.7833 23.6202 22.918V22.9494L23.6097 22.9809L23.5992 22.9704ZM24.7839 21.4607C23.9871 17.351 29.7952 12.3293 29.6484 7.19217C31.9129 11.9938 27.7298 18.4414 24.7839 21.4607ZM28.3484 36.1591L28.3169 36.3268L28.2121 36.1906C26.5871 33.968 26.2516 30.3091 27.4048 27.6881L27.4258 27.6462L28.2016 27.5623C30.4661 27.3107 32.8984 25.4131 34.4081 22.7397C35.3202 21.1147 35.8234 19.3639 35.8968 17.5293V17.2777L36.0331 17.4978C37.396 19.8357 37.05 22.4147 36.5153 24.176C35.8339 26.4091 34.6073 28.2438 33.6847 29.2188C33.2024 29.722 32.6782 30.2147 32.175 30.697C30.5186 32.2591 28.8097 33.8631 28.3484 36.1801V36.1591Z" fill="#FEBD11"/>
<path d="M54.0968 78.6709H35.5508V70.6717H38.9266V58.5419L31.2 77.0669H23.1798L15.275 58.4685V70.6612H18.7347V78.6604H0V70.0427H3.01936C3.35484 70.0427 4.39274 70.0427 4.39274 68.5749V50.3959C4.39274 49.683 3.85806 49.1064 3.19758 49.1064H0V40.3838H19.6677L27.0484 57.483L34.429 40.3838H54.0968V49.1064H50.8573C50.1968 49.1064 49.6621 49.683 49.6621 50.3959V68.5749C49.6621 69.5604 50.1129 70.0427 51.0355 70.0427H54.0968V78.6604V78.6709ZM37.1863 77.0144H52.4403V71.6991H51.0355C49.2008 71.6991 48.0056 70.4725 48.0056 68.5749V50.3959C48.0056 48.7709 49.2847 47.4499 50.8573 47.4499H52.4403V42.0298H35.5089L27.0484 61.6451L18.5879 42.0298H1.64597V47.4499H3.19758C4.77016 47.4499 6.04919 48.7709 6.04919 50.3959V68.5749C6.04919 70.4725 4.86452 71.6991 3.01936 71.6991H1.64597V77.0144H17.0677V72.3072H13.6081V50.3539L24.2492 75.3999H30.0677L40.5411 50.2806V72.2967H37.1653V77.0039L37.1863 77.0144Z" fill="#FEBD11"/>
<path d="M37.1858 72.3072V77.0145H52.4399V71.6991H51.035C49.2004 71.6991 48.0052 70.4725 48.0052 68.5749V50.3959C48.0052 48.7709 49.2842 47.4499 50.8568 47.4499H52.4399V42.0298H35.5084L27.0479 61.6451L18.5874 42.0298H1.64551V47.4499H3.19712C4.7697 47.4499 6.04873 48.7709 6.04873 50.3959V68.5749C6.04873 70.4725 4.86406 71.6991 3.0189 71.6991H1.64551V77.0145H17.0673V72.3072H13.6076V50.354L24.2487 75.3999H30.0673L40.5407 50.2806V72.2967H37.1649L37.1858 72.3072Z" fill="#463066"/>
<path d="M206.061 58.2061C204.037 58.2061 201.458 57.7134 199.173 56.8956L199.078 56.8642V52.2198H202.171V52.3666C202.171 54.065 203.733 55.2182 206.061 55.2182C208.115 55.2182 209.719 54.2642 209.719 53.048C209.719 51.5279 207.696 51.0666 205.358 50.5424C202.234 49.84 198.69 49.0327 198.69 45.4158C198.69 42.1448 201.71 40.1948 206.763 40.1948C208.608 40.1948 211.219 40.5932 213.263 41.1803L213.368 41.2118V45.4892H210.411V45.3424C210.411 43.5811 208.419 42.9626 206.721 42.9626C204.582 42.9626 203.188 43.7698 203.188 45.0279C203.188 46.286 205.117 46.7577 207.35 47.24C210.443 47.911 214.29 48.7601 214.29 52.4924C214.29 56.2247 211.219 58.2166 206.071 58.2166L206.061 58.2061Z" fill="#463066"/>
<path d="M227.94 58.1121C226.745 58.1121 225.592 57.6613 224.774 56.8645C224.008 56.1202 223.579 55.1347 223.579 54.0758C223.579 52.1048 225.497 49.9976 229.051 49.9976H232.06V48.4879C232.06 47.2822 230.508 47.0935 229.586 47.0935H229.554C229.198 47.0935 228.548 47.0831 228.045 47.2822C227.51 47.5024 227.248 47.9113 227.248 48.5508V48.6976H224.48V45.0282L224.596 45.0072C226.221 44.6298 228.223 44.4097 229.953 44.4097C234.104 44.4097 236.044 45.8984 236.044 49.075V54.7048C236.044 55.0613 236.191 55.4911 236.862 55.4911H237.805V57.8395L237.679 57.8605C236.778 57.9968 236.033 58.0911 235.31 58.0911C233.884 58.0911 232.92 57.6298 232.437 56.7387C231.211 57.5879 229.743 58.0387 228.097 58.0911C228.045 58.0911 227.992 58.0911 227.94 58.0911V58.1121ZM229.827 52.1468C228.433 52.1468 227.604 52.7863 227.604 53.8661C227.604 54.8621 228.433 55.4072 229.198 55.4072C230.047 55.4072 231.295 55.1347 232.06 54.6105L232.029 52.1468H229.837H229.827Z" fill="#463066"/>
<path d="M254.16 58.2062C249.118 58.2062 246.444 55.8368 246.444 51.3707C246.444 46.9045 249.055 44.5562 253.605 44.5562C257.84 44.5562 259.989 46.6634 259.989 50.836V52.2723H250.827C250.889 54.4424 251.959 55.407 254.255 55.407C255.88 55.407 256.897 54.8408 257.463 53.6457L257.484 53.5828H259.696V56.8852L259.612 56.9271C257.882 57.6924 255.639 58.2271 254.15 58.2271L254.16 58.2062ZM250.785 49.9344H256.11C256.069 48.0997 255.219 47.1981 253.51 47.1981C251.802 47.1981 250.837 48.1941 250.785 49.9344Z" fill="#463066"/>
<path d="M242.849 58.2062C240.028 58.2062 238.655 56.9901 238.655 54.5054V47.4393H237.02V45.3949L237.135 45.3739C238.749 45.1014 239.536 44.1264 239.829 42.0086L239.85 41.8828H242.66V45.0175H246.528V47.4393H242.66V53.6667C242.66 54.2538 242.765 54.6417 243.006 54.8723C243.268 55.1239 243.708 55.2393 244.453 55.2288C245.082 55.2288 245.711 55.1764 246.361 55.0925L246.518 55.0715V57.9022L246.403 57.9231C245.27 58.1747 243.687 58.2062 242.838 58.2062H242.849Z" fill="#463066"/>
<path d="M219.721 58.2062C216.901 58.2062 215.527 56.9901 215.527 54.5054V47.4393H213.965V45.3949L214.081 45.3739C215.664 45.1118 216.398 44.1683 216.702 42.0086L216.723 41.8828H219.532V45.0175H223.265V47.4393H219.532V53.6667C219.532 54.2538 219.637 54.6417 219.878 54.8723C220.13 55.1239 220.56 55.2288 221.252 55.2288H221.335C221.996 55.2288 222.248 55.1659 222.866 55.0925L223.023 55.0715V57.9022L222.908 57.9231C221.734 58.1747 220.591 58.2062 219.721 58.2062Z" fill="#463066"/>
<path d="M136.143 58.2062C131.101 58.2062 128.427 55.8368 128.427 51.3707C128.427 46.9045 131.038 44.5562 135.588 44.5562C139.823 44.5562 141.972 46.6634 141.972 50.836V52.2723H132.81C132.872 54.4424 133.942 55.407 136.238 55.407C137.863 55.407 138.88 54.8513 139.446 53.6666L139.477 53.5828H141.679V56.8852L141.595 56.9271C139.865 57.6924 137.622 58.2271 136.133 58.2271L136.143 58.2062ZM132.768 49.9344H138.093C138.051 48.0997 137.202 47.1981 135.493 47.1981C133.785 47.1981 132.82 48.1941 132.768 49.9344Z" fill="#463066"/>
<path d="M86.1668 57.9233H78.7652V55.4386H80.1805V45.3741L75.4418 57.9233H72.045L72.0136 57.8289C71.2797 55.8894 70.5459 53.9603 69.8015 52.0208C69.0571 50.0813 68.1555 47.691 67.2749 45.3741V55.4386H68.6902V57.9233H61.8442V55.4386H63.0604C63.5217 55.4386 63.7628 55.1241 63.7628 54.82V43.6232C63.7628 43.3087 63.5321 42.9837 63.1128 42.9837H61.8547V40.3418H69.9692L69.9902 40.3837L74.2781 52.2934L78.4612 40.3418H86.1878V42.9837H84.9297C84.5209 42.9837 84.3007 43.3087 84.3007 43.6232V54.82C84.3007 55.1136 84.5942 55.4386 85.045 55.4386H86.1878V57.9233H86.1668Z" fill="#463066"/>
<path d="M163.014 58.2062C158.39 58.2062 155.728 55.7215 155.728 51.3916C155.728 47.0618 158.38 44.5562 163.014 44.5562C167.648 44.5562 170.3 47.0513 170.3 51.3916C170.3 55.732 167.648 58.2062 163.014 58.2062ZM163.014 47.3344C160.896 47.3344 159.911 48.6239 159.911 51.3812C159.911 54.1384 160.896 55.4279 163.014 55.4279C165.132 55.4279 166.149 54.1384 166.149 51.3812C166.149 48.6239 165.153 47.3344 163.014 47.3344Z" fill="#463066"/>
<path d="M128.427 57.9231H121.162V55.4594H122.64V49.232C122.64 48.0682 122.053 47.5441 120.732 47.5441C119.726 47.5441 118.3 48.2989 117.692 48.6449V55.4489H119.17V57.9126H112.188V55.4489H112.88C113.289 55.4489 113.498 55.2707 113.498 54.8933V47.9215C113.498 47.5545 113.32 47.4078 112.88 47.4078H111.464V44.9965H117.524V46.1078C119.275 45.0803 120.942 44.5562 122.483 44.5562C126.393 44.5562 126.813 47.3239 126.813 48.5191V54.9666C126.813 55.3126 126.98 55.4489 127.4 55.4489H128.417V57.9126L128.427 57.9231Z" fill="#463066"/>
<path d="M111.224 57.9231H104.273V55.4594H105.751V49.232C105.751 48.0682 105.164 47.5441 103.843 47.5441C102.837 47.5441 101.411 48.2989 100.803 48.6449V55.4489H102.281V57.9126H95.0158V55.4489H96.0013C96.4101 55.4489 96.6198 55.2707 96.6198 54.8933V47.9215C96.6198 47.5545 96.4416 47.4078 96.0013 47.4078H94.5859V44.9965H100.646V46.1078C102.396 45.0803 104.063 44.5562 105.604 44.5562C109.515 44.5562 109.934 47.3239 109.934 48.5191V54.9666C109.934 55.3126 110.102 55.4489 110.521 55.4489H111.213V57.9126L111.224 57.9231Z" fill="#463066"/>
<path d="M184.495 58.1121C183.3 58.1121 182.147 57.6613 181.329 56.8645C180.564 56.1202 180.134 55.1347 180.134 54.0758C180.134 52.1048 182.052 49.9976 185.606 49.9976H188.615V48.4879C188.615 47.2822 187.064 47.0935 186.141 47.0935H186.057C185.638 47.0935 185.051 47.0935 184.589 47.2822C184.055 47.5024 183.793 47.9113 183.793 48.5508V48.6976H181.025V45.0282L181.14 45.0072C182.765 44.6298 184.768 44.4097 186.497 44.4097C190.649 44.4097 192.589 45.8984 192.589 49.075V54.7048C192.589 55.0613 192.725 55.4911 193.406 55.4911H194.35V57.8395L194.224 57.8605C193.322 57.9968 192.578 58.0911 191.855 58.0911C190.429 58.0911 189.464 57.6403 188.982 56.7387C187.756 57.5879 186.288 58.0387 184.642 58.0911C184.589 58.0911 184.537 58.0911 184.485 58.0911L184.495 58.1121ZM186.393 52.1468C184.998 52.1468 184.17 52.7863 184.17 53.8661C184.17 54.8621 184.988 55.4072 185.764 55.4072C186.613 55.4072 187.86 55.1347 188.626 54.6105L188.594 52.1468H186.403H186.393Z" fill="#463066"/>
<path d="M176.024 58.2062C173.204 58.2062 171.83 56.9901 171.83 54.5054V47.4393H170.195V45.3949L170.31 45.3739C171.925 45.1014 172.711 44.1264 173.005 42.0086L173.025 41.8828H175.835V45.0175H179.567V47.4393H175.835V53.6667C175.835 54.2538 175.94 54.6417 176.181 54.8723C176.433 55.1239 176.852 55.2288 177.555 55.2288H177.638C178.246 55.2288 178.592 55.1764 179.148 55.103L179.421 55.0715V57.9022L179.305 57.9231C178.131 58.1747 176.873 58.2062 176.034 58.2062H176.024Z" fill="#463066"/>
<path d="M148.504 58.1751C146.344 58.1751 144.111 57.3259 143.21 56.8017L143.136 56.7598L143.115 53.5098H145.904V53.6566C145.904 54.0655 146.061 54.4324 146.376 54.7364C146.848 55.1977 147.602 55.4703 148.462 55.4703C149.207 55.4703 150.255 55.4074 150.737 54.9147C150.936 54.7155 151.02 54.4534 150.999 54.1179C150.947 53.2477 149.437 52.9542 148.106 52.6816H148.074C147.875 52.6396 147.676 52.5977 147.487 52.5558C144.625 51.8219 142.864 50.9098 142.864 48.5719C142.864 46.0348 145.139 44.5146 148.923 44.5146C150.486 44.5146 152.74 44.7558 154.176 45.1017L154.291 45.1332L154.312 48.4985H151.786V48.3517C151.786 48.0477 151.66 47.7856 151.419 47.5655C150.852 47.0517 149.594 46.905 148.819 46.9784C148.022 47.0517 147.466 47.2719 147.204 47.6074C147.057 47.7856 147.005 48.0058 147.036 48.2469C147.162 49.1171 148.085 49.3267 149.49 49.6308C149.626 49.6622 149.773 49.6937 149.909 49.7251C152.457 50.2493 155.182 51.0356 155.182 53.6671C155.182 56.4872 152.677 58.1646 148.504 58.1646V58.1751Z" fill="#463066"/>
<path d="M92.2159 43.4345H88.0957V40.3418H92.2159V43.4345Z" fill="#463066"/>
<path d="M91.6917 58.1022C89.2175 58.1022 88.1167 57.1796 88.1167 55.1038V48.0167C88.1167 47.5135 87.6973 47.4401 87.4457 47.4401H86.2925V45.0288H92.2264V54.4957C92.2264 55.0828 92.6038 55.4707 93.1804 55.4707H93.9876V57.882L93.8723 57.903C92.9078 58.0812 91.9957 58.0917 91.7022 58.0917L91.6917 58.1022Z" fill="#463066"/>
<path d="M134.078 71.5838C134.078 67.4322 131.939 65.3354 127.725 65.3354C123.196 65.3354 120.596 67.8096 120.596 72.1185C120.596 76.4274 123.248 78.9225 128.28 78.9225C129.759 78.9225 131.992 78.3879 133.711 77.633L133.795 77.5911V74.2992H131.604L131.572 74.383C131.006 75.5677 130 76.1234 128.385 76.1234C126.1 76.1234 125.041 75.1588 124.967 73.0096H134.088V71.5838H134.078ZM124.915 70.6927C124.967 68.9629 125.953 67.9774 127.63 67.9774C129.308 67.9774 130.178 68.8685 130.22 70.6927H124.926H124.915Z" fill="#463066"/>
<path d="M72.1399 78.9223C66.4261 78.9223 63.6479 76.7626 63.6479 72.3175V64.4021C63.6479 64.0562 63.4173 63.6892 62.9979 63.6892H61.8237V61.0054H70.0536V63.6892H68.2608V72.632C68.2608 74.8021 69.6657 75.8925 72.4334 75.8925C73.7124 75.8925 76.6794 75.578 76.6794 72.653V63.6892H75.0124V61.0054H82.5084V63.6892H81.4915C81.0092 63.6892 80.7576 64.0142 80.7576 64.3392L80.831 72.3175C80.831 76.6997 77.8011 78.9223 72.1399 78.9223Z" fill="#463066"/>
<path d="M99.0725 78.65H91.7443V76.1968H93.2854V70.0008C93.2854 68.8371 92.7088 68.3234 91.4193 68.3234C90.4443 68.3234 89.0394 69.0782 88.4523 69.4242V76.1968H89.9935V78.65H82.6652V76.1968H83.7661C84.1749 76.1968 84.3636 76.0185 84.3636 75.6411V68.7008C84.3636 68.3548 84.1435 68.1976 83.6927 68.1976H82.4556V65.7968H88.3056V66.8976C90.0144 65.8806 91.6499 65.3564 93.1596 65.3564C96.9757 65.3564 97.3951 68.1137 97.3951 69.2984V75.7145C97.3951 76.0605 97.5523 76.1968 97.9717 76.1968H99.0935V78.65H99.0725Z" fill="#463066"/>
<path d="M115.396 78.6711H111.118L111.076 78.5872L106.547 68.3759C106.505 68.292 106.432 68.2082 106.159 68.2082H104.954V65.7969H112.46V68.2082H110.72L113.519 75.1485H113.561L116.234 68.2082H114.693V65.7969H121.109V68.2082H120.04C119.904 68.2082 119.788 68.2606 119.757 68.3445L115.375 78.6711H115.396Z" fill="#463066"/>
<path d="M142.182 78.6499H134.718V76.1757H135.808C136.217 76.1757 136.374 76.0394 136.374 75.6934V68.7112C136.374 68.3547 136.206 68.2079 135.787 68.2079H134.34V65.7966H140.232V67.6837C142.203 65.8386 143.514 65.4507 144.866 65.4507H145.013V69.162H144.866C143.514 69.162 141.658 69.3507 140.442 70.2418V76.1652H142.193V78.6394L142.182 78.6499Z" fill="#463066"/>
<path d="M151.157 78.9225C148.986 78.9225 146.806 78.1992 145.946 77.6854L145.873 77.6435V77.6016L145.852 74.2048H148.672V74.3516C148.672 74.7919 148.84 75.1903 149.165 75.5153C149.615 75.9661 150.318 76.2282 151.115 76.2282C151.848 76.2282 152.876 76.1653 153.348 75.6725C153.536 75.4734 153.62 75.2113 153.61 74.8863C153.568 74.0161 152.069 73.7225 150.758 73.4604H150.706C150.517 73.4185 150.328 73.3766 150.15 73.3346C147.34 72.6113 145.6 71.6887 145.6 69.3717C145.6 66.8451 147.833 65.3354 151.565 65.3354C153.274 65.3354 155.371 65.5346 156.671 65.8492L156.776 65.8806V65.933L156.797 69.2355H154.239V69.0887C154.239 68.7742 154.123 68.5121 153.893 68.3024C153.348 67.8096 152.173 67.7153 151.471 67.7887C150.695 67.8621 150.14 68.0822 149.878 68.4177C149.731 68.5959 149.678 68.8161 149.71 69.0572C149.825 69.9274 150.748 70.1266 152.132 70.4411H152.163C152.289 70.4725 152.415 70.504 152.551 70.5354C155.067 71.0596 157.74 71.8354 157.74 74.4564C157.74 77.2556 155.277 78.933 151.167 78.933L151.157 78.9225Z" fill="#463066"/>
<path d="M181.56 83.4304H176.831V82.2982L176.852 82.2772L180.207 78.6812H178.624L178.582 78.5974L174.095 68.5224C173.99 68.2812 173.749 68.2288 173.56 68.2183H170.226V74.4143C170.226 75.0014 170.331 75.3788 170.572 75.6095C170.835 75.8611 171.275 75.9869 172.019 75.9659C173.026 75.9449 174.032 75.7562 174.032 75.7562V78.5764L173.917 78.5974C172.753 78.8909 171.39 78.9329 170.426 78.9329C167.616 78.9329 166.253 77.7272 166.253 75.2425V68.2078H164.555V66.1635L164.67 66.1425C166.305 65.8699 167.134 64.8635 167.417 62.7982L167.438 62.6724H170.237V65.7861H179.882L180.039 68.1974H178.152L181.035 75.3054L184.254 68.1974H182.514V65.7861H189.234V68.1974H188.112C187.797 68.1974 187.619 68.5014 187.577 68.5958L183.289 78.5869L181.58 83.4304H181.56Z" fill="#463066"/>
<path d="M104.095 61.2363H100.069V64.1613H104.095V61.2363Z" fill="#463066"/>
<path d="M103.58 78.8071C101.159 78.8071 100.089 77.8845 100.089 75.8192V68.7635C100.089 68.2603 99.6804 68.1869 99.4392 68.1869H98.3804V65.7861H104.105V75.2111C104.105 75.7982 104.482 76.1861 105.038 76.1861H106.055V78.5869L105.939 78.6079C105.184 78.7442 104.23 78.7966 103.591 78.7966L103.58 78.8071Z" fill="#463066"/>
<path d="M162.835 78.7966C160.445 78.7966 159.376 77.874 159.376 75.8192V68.7635C159.376 68.2603 158.967 68.1869 158.726 68.1869H157.614V65.7861H163.349V75.2111C163.349 75.7982 163.716 76.1861 164.272 76.1861H165.278V78.5869L165.163 78.6079C164.418 78.7442 163.475 78.7966 162.835 78.7966Z" fill="#463066"/>
<path d="M163.349 61.2153H159.365V64.1403H163.349V61.2153Z" fill="#463066"/>
<path d="M202.486 78.4827H199.057V77.298H199.676V72.7375L197.485 78.4827H195.902L193.69 72.748V77.298H194.308V78.4827H191.215V77.298H191.698C191.949 77.298 192.012 77.1932 192.012 77.0254V72.1819C192.012 72.0246 191.949 71.9093 191.729 71.9093H191.121V70.7246H195.011L196.982 75.8617L198.827 70.7246H202.664V71.9093H201.961C201.752 71.9093 201.678 72.0141 201.678 72.1819V77.0254C201.678 77.1827 201.741 77.298 201.993 77.298H202.475V78.4827H202.486Z" fill="#FEBD11"/>
<path d="M205.861 71.9195H204.446L204.823 70.7349H209.31L211.743 76.9308C211.816 77.1405 211.921 77.2978 212.225 77.2978H212.602V78.4824H208.618V77.2978H209.394L208.87 75.7566H206.239L205.662 77.2978H206.469V78.4824H203.041V77.2978H203.429C203.722 77.2978 203.827 77.1405 203.911 76.9308L205.861 71.9195ZM207.622 72.1397H207.497L206.574 74.7083H208.535L207.622 72.1397Z" fill="#FEBD11"/>
<path d="M224.261 71.9195H223.674V70.7349H227.731V71.9195H226.903V74.0687H227.637L229.482 71.9195H228.8V70.7349H232.438V71.9195H231.6L229.555 74.247L230.53 75.6203C231.212 76.5115 231.568 77.2873 232.721 77.3082V78.4929C232.491 78.5139 232.113 78.5453 231.904 78.5453C230.279 78.5453 229.471 77.78 228.559 76.5324L227.553 75.1381H226.903V77.2873H227.637V78.472H223.674V77.2873H224.229C224.513 77.2873 224.596 77.1824 224.596 77.0147V72.1711C224.596 72.0139 224.523 71.8986 224.271 71.8986L224.261 71.9195Z" fill="#FEBD11"/>
<path d="M236.076 71.9195H234.671L235.048 70.7349H239.504L241.915 76.9308C241.989 77.1405 242.094 77.2978 242.398 77.2978H242.859V78.4824H238.802V77.2978H239.577L239.064 75.7566H236.453L235.887 77.2978H236.684V78.4824H233.287V77.2978H233.665C233.958 77.2978 234.063 77.1405 234.147 76.9308L236.086 71.9195H236.076ZM237.827 72.1397H237.701L236.789 74.7083H238.739L237.837 72.1397H237.827Z" fill="#FEBD11"/>
<path d="M247.681 77.2978H248.132V78.4824H244.222V77.2978H244.672C244.956 77.2978 245.029 77.1929 245.029 77.0252V72.0978H243.561L243.289 73.3453H242.02V70.7349H250.313V73.3453H249.044L248.772 72.0978H247.304V77.0461C247.314 77.2034 247.398 77.2978 247.66 77.2978H247.681Z" fill="#FEBD11"/>
<path d="M255.345 70.5986C258.123 70.5986 259.842 71.972 259.842 74.6035C259.842 77.2349 258.112 78.6083 255.345 78.6083C252.577 78.6083 250.847 77.2454 250.847 74.6035C250.847 71.9615 252.587 70.5986 255.345 70.5986ZM255.345 77.2559C256.592 77.2559 257.473 76.6164 257.473 74.614C257.473 72.6115 256.582 71.9615 255.345 71.9615C254.108 71.9615 253.217 72.6115 253.217 74.614C253.217 76.6164 254.118 77.2559 255.345 77.2559Z" fill="#FEBD11"/>
<path d="M219.333 70.7351V71.9198H220.161V75.7883L216.408 70.7351H212.896L212.519 71.9512H213.577C213.829 71.9512 213.902 72.0561 213.902 72.2238V77.0359C213.902 77.1932 213.829 77.3085 213.535 77.3085H212.98V78.4932H216.597V77.3085H215.769V73.4714L219.532 78.4827H221.996V72.1819C221.996 72.0246 222.069 71.9093 222.321 71.9093H222.908V70.7246H219.323L219.333 70.7351Z" fill="#FEBD11"/>
</g>
<defs>
<clipPath id="clip0_2304_9201">
<rect width="260" height="83.4306" fill="white"/>
</clipPath>
</defs>
</svg>
